{"title":"The.Thing.Called.Love.1993.SWESUB.DVDRip.XviD.-Zen_Bud","uid":5675062,"size":1467891712,"categoryP":"video","categoryS":"movies","magnet":"?xt=urn:btih:4da2bec48eea678cb147246b72e4c132347772d1&amp;dn=The.Thing.Called.Love.1993.SWESUB.DVDRip.XviD.-Zen_Bud&amp;tr=udp%3A%2F%2Ftracker.openbittorrent.com%3A80&amp;tr=udp%3A%2F%2Fopen.demonii.com%3A1337&amp;tr=udp%3A%2F%2Ftracker.coppersurfer.tk%3A6969&amp;tr=udp%3A%2F%2Fexodus.desync.com%3A6969","seeders":5,"leechers":0,"uploader":"kimman59","files":1,"time":1278491576,"description":"General\nComplete name                    : The.Thing.Called.Love.avi\nFormat                           : AVI\nFile size                        : 1.37 GiB\nDuration                         : 1h 53mn\nOverall bit rate                 : 1 723 Kbps\n\n\nVideo\n\nFormat                           : MPEG-4 Visual\nCodec ID/Hint                    : XviD\nDuration                         : 1h 53mn\nBit rate                         : 1 585 Kbps\nWidth                            : 720 pixels\nHeight                           : 412 pixels\nDisplay aspect ratio             : 16:9\nStream size                      : 1.26 GiB (92%)\nWriting library                  : XviD 1.2.1 (UTC 2008-12-04)\n\nAudio\n\nFormat                           : MPEG Audio\nCodec ID/Hint                    : MP3\nDuration                         : 1h 53mn\nBit rate                         : 128 Kbps\nChannel(s)                       : 2 channels\nSampling rate                    : 48.0 KHz\nStream size                      : 104 MiB (7%)\nWriting library                  : LAME3.97 \n\n\n","torrent":{"xt":"urn:btih:4da2bec48eea678cb147246b72e4c132347772d1","amp;dn":"The.Thing.Called.Love.1993.SWESUB.DVDRip.XviD.-Zen_Bud","amp;tr":["udp%3A%2F%2Ftracker.openbittorrent.com%3A80","udp%3A%2F%2Fopen.demonii.com%3A1337","udp%3A%2F%2Ftracker.coppersurfer.tk%3A6969","udp%3A%2F%2Fexodus.desync.com%3A6969"],"infoHash":"4da2bec48eea678cb147246b72e4c132347772d1","infoHashBuffer":{"type":"Buffer","data":[77,162,190,196,142,234,103,140,177,71,36,107,114,228,193,50,52,119,114,209]},"announce":[],"urlList":[]}}